<svg xmlns="http://www.w3.org/2000/svg" viewBox="0 0 47.68 47.68">
  <defs>
    <style>
      .cls-1 {
        fill: #fff;
      }
    </style>
  </defs>
  <path id="Path_895" data-name="Path 895" class="cls-1" d="M23.84,4.2A23.84,23.84,0,1,0,47.68,28.04,23.834,23.834,0,0,0,23.84,4.2ZM3.293,27.381a15.771,15.771,0,0,1,.659-4.347h0A25.37,25.37,0,0,1,22,47.27v1.317a17.094,17.094,0,0,1-4.347-.922h0v-.4A20.887,20.887,0,0,0,3.293,27.381ZM25.684,47.27A25.37,25.37,0,0,1,43.729,23.035h0a24.781,24.781,0,0,1,.659,4.347A20.932,20.932,0,0,0,30.03,47.27v.4a25.584,25.584,0,0,1-4.347.922A4.391,4.391,0,0,0,25.684,47.27ZM23.84,7.493A20.6,20.6,0,0,1,42.675,19.874,28.442,28.442,0,0,0,23.84,38.182,28.723,28.723,0,0,0,5.005,19.874h0A20.6,20.6,0,0,1,23.84,7.493ZM3.556,31.069A17.376,17.376,0,0,1,14.225,46.216h0A20.759,20.759,0,0,1,3.556,31.069Zm29.9,15.147A17.6,17.6,0,0,1,44.124,31.069,20.423,20.423,0,0,1,33.455,46.216Z" transform="translate(0 -4.2)"/>
</svg>
