<svg id="Group_1113" data-name="Group 1113" xmlns="http://www.w3.org/2000/svg" viewBox="0 0 77.644 64.83">
  <defs>
    <style>
      .cls-1 {
        fill: #2e3192;
      }

      .cls-2 {
        fill: #70c8bc;
      }
    </style>
  </defs>
  <ellipse id="Ellipse_84" data-name="Ellipse 84" class="cls-1" cx="6.47" cy="6.47" rx="6.47" ry="6.47" transform="translate(45.292 29.243)"/>
  <path id="Path_931" data-name="Path 931" class="cls-2" d="M74.408,16.263H69.879L61.144,1.705A4.126,4.126,0,0,0,58.88.088a2.516,2.516,0,0,0-2.588.647L34.616,16.263h11L57.262,7.852l4.853,8.411H48.527v6.47H71.173V48.615H32.351v-6.47h-6.47V51.85a3.056,3.056,0,0,0,3.235,3.235H51.439l-.647,1.294A3.718,3.718,0,0,1,47.88,58.32h-20.7l-7.764-7.764V33.733l7.764-7.764H38.822V29.2a3.056,3.056,0,0,1-3.235,3.235h-6.47v6.47h6.47A9.532,9.532,0,0,0,45.292,29.2v-6.47A3.056,3.056,0,0,0,42.057,19.5H25.881a2.937,2.937,0,0,0-2.265.971l-5.823,5.823c-.647,0-.971-.324-1.618-.324H3.235A3.056,3.056,0,0,0,0,29.2V55.085A3.056,3.056,0,0,0,3.235,58.32H16.176c.647,0,.971-.324,1.618-.324l5.823,5.823a2.937,2.937,0,0,0,2.265.971h22a9.535,9.535,0,0,0,8.735-5.5l2.265-4.206H74.408a3.056,3.056,0,0,0,3.235-3.235V19.5A3.056,3.056,0,0,0,74.408,16.263ZM12.941,51.85H6.47V32.439h6.47Z" transform="translate(0 0.039)"/>
</svg>
