<svg xmlns="http://www.w3.org/2000/svg" viewBox="0 0 123.15 28.009">
  <defs>
    <style>
      .cls-1 {
        fill: #2e3192;
      }
    </style>
  </defs>
  <g id="Group_943" data-name="Group 943" transform="translate(0 -1.617)">
    <g id="Group_982" data-name="Group 982" transform="translate(0 1.717)">
      <path id="Path_910" data-name="Path 910" class="cls-1" d="M13.592.2A13.592,13.592,0,1,0,27.183,13.792,13.588,13.588,0,0,0,13.592.2ZM1.877,13.416a8.991,8.991,0,0,1,.375-2.478h0A14.464,14.464,0,0,1,12.54,24.755v.751a9.746,9.746,0,0,1-2.478-.526h0v-.225A11.908,11.908,0,0,0,1.877,13.416ZM14.643,24.755A14.464,14.464,0,0,1,24.931,10.938h0a14.128,14.128,0,0,1,.375,2.478,11.934,11.934,0,0,0-8.185,11.339v.225a14.586,14.586,0,0,1-2.478.526A2.5,2.5,0,0,0,14.643,24.755ZM13.592,2.077A11.745,11.745,0,0,1,24.33,9.136,16.215,16.215,0,0,0,13.592,19.574,16.376,16.376,0,0,0,2.853,9.136h0A11.745,11.745,0,0,1,13.592,2.077ZM2.027,15.519A9.906,9.906,0,0,1,8.11,24.154h0A11.835,11.835,0,0,1,2.027,15.519Zm17.046,8.636a10.034,10.034,0,0,1,6.082-8.636A11.643,11.643,0,0,1,19.073,24.154Z" transform="translate(0 -0.075)"/>
      <g id="Group_980" data-name="Group 980" transform="translate(38.147 -0.1)">
        <path id="Path_911" data-name="Path 911" class="cls-1" d="M60.562,3.679H55.08V6.157h4.881V9.386H55.08v2.778h5.482v3.379H50.8V.3h9.762Z" transform="translate(-50.8 0)"/>
        <path id="Path_912" data-name="Path 912" class="cls-1" d="M72.909,11.263l-2.553,4.28H65.55l4.956-7.81L65.4.3h4.956L73.21,4.505,75.688.3h4.806L75.612,7.959l5.256,7.584H75.838Z" transform="translate(-54.437 0)"/>
        <path id="Path_913" data-name="Path 913" class="cls-1" d="M92.41,15.619A7.619,7.619,0,0,1,84.6,7.81a7.81,7.81,0,1,1,15.619,0A7.619,7.619,0,0,1,92.41,15.619Zm0-3.9c2.178,0,3.529-1.5,3.529-3.9S94.587,3.9,92.41,3.9s-3.529,1.5-3.529,3.9C88.955,10.137,90.232,11.714,92.41,11.714Z" transform="translate(-59.219 0.075)"/>
        <path id="Path_914" data-name="Path 914" class="cls-1" d="M121.667,7.959c0,4.43-3.079,7.659-7.96,7.659H107.7V.3h6.007C118.588.3,121.667,3.454,121.667,7.959Zm-8.26,3.83c2.478,0,3.98-1.352,3.98-3.9s-1.5-3.9-3.98-3.9h-1.5v7.81Z" transform="translate(-64.973 0)"/>
        <path id="Path_915" data-name="Path 915" class="cls-1" d="M128.475.3h4.205V9.161c0,1.577.751,2.553,2.328,2.553s2.328-.976,2.328-2.553V.3h4.205V9.161c0,4.355-3,6.533-6.683,6.533S128.4,13.516,128.4,9.161V.3Z" transform="translate(-70.129 0)"/>
        <path id="Path_916" data-name="Path 916" class="cls-1" d="M154.432,15.594c-3.379,0-6.007-1.652-6.233-4.881h4.506a1.409,1.409,0,0,0,1.5,1.5c.751,0,1.352-.375,1.352-1.126,0-2.478-7.434-1.277-7.359-6.608,0-3,2.478-4.581,5.707-4.581,3.529,0,5.782,1.727,5.932,4.731h-4.581a1.279,1.279,0,0,0-1.427-1.352,1.045,1.045,0,0,0-1.126,1.051c0,2.253,7.359,1.5,7.359,6.458C160.064,13.492,158.037,15.594,154.432,15.594Z" transform="translate(-75.06 0.1)"/>
      </g>
      <g id="Group_981" data-name="Group 981" transform="translate(38.297 20.696)">
        <path id="Path_917" data-name="Path 917" class="cls-1" d="M52.427,27.7v5.932h2.328v1.126H51V27.7h1.427Z" transform="translate(-51 -27.62)"/>
        <path id="Path_918" data-name="Path 918" class="cls-1" d="M61.33,28.8h-2.7v1.8h2.4v1.051h-2.4v1.877h2.7v1.126H57.2V27.6h4.13Z" transform="translate(-52.544 -27.595)"/>
        <path id="Path_919" data-name="Path 919" class="cls-1" d="M70.382,27.7v7.059H68.956l-3.229-4.806v4.806H64.3V27.7h1.427l3.229,4.881V27.7h1.427Z" transform="translate(-54.313 -27.62)"/>
        <path id="Path_920" data-name="Path 920" class="cls-1" d="M80.433,31.229a3.453,3.453,0,0,1-3.755,3.529H74.2V27.7h2.478C79.006,27.7,80.433,29.052,80.433,31.229Zm-3.755,2.328a2.1,2.1,0,0,0,2.328-2.328A2.1,2.1,0,0,0,76.678,28.9H75.7v4.656Z" transform="translate(-56.779 -27.62)"/>
        <path id="Path_921" data-name="Path 921" class="cls-1" d="M83.9,27.7h1.427v7.059H83.9Z" transform="translate(-59.195 -27.62)"/>
        <path id="Path_922" data-name="Path 922" class="cls-1" d="M93.682,27.7v7.059H92.256l-3.229-4.806v4.806H87.6V27.7h1.427l3.229,4.881V27.7h1.427Z" transform="translate(-60.116 -27.62)"/>
        <path id="Path_923" data-name="Path 923" class="cls-1" d="M104.008,29.776h-1.652a1.725,1.725,0,0,0-1.652-.9A2.132,2.132,0,0,0,98.527,31.2a2.132,2.132,0,0,0,2.178,2.328,1.907,1.907,0,0,0,2.027-1.652h-2.4V30.827h3.83v1.2A3.581,3.581,0,1,1,100.7,27.6,3.136,3.136,0,0,1,104.008,29.776Z" transform="translate(-62.483 -27.594)"/>
      </g>
    </g>
  </g>
</svg>
