<svg xmlns="http://www.w3.org/2000/svg" xmlns:xlink="http://www.w3.org/1999/xlink" viewBox="0 0 486 390">
  <defs>
    <style>
      .cls-1 {
        fill: none;
      }

      .cls-2 {
        clip-path: url(#clip-path);
      }

      .cls-3 {
        fill: #70c8bc;
      }

      .cls-4 {
        opacity: 0.2;
      }

      .cls-5 {
        fill: #2e3192;
      }
    </style>
    <clipPath id="clip-path">
      <rect id="Rectangle_299" data-name="Rectangle 299" class="cls-1" width="486" height="390" transform="translate(60 1068)"/>
    </clipPath>
  </defs>
  <g id="Group_4" data-name="Group 4" class="cls-2" transform="translate(-60 -1068)">
    <rect id="Rectangle_307" data-name="Rectangle 307" class="cls-3" width="517" height="426" transform="translate(52 1055)"/>
    <rect id="Rectangle_298" data-name="Rectangle 298" class="cls-1" width="486" height="390" transform="translate(60 1068)"/>
    <g id="Group_958" data-name="Group 958" class="cls-4" transform="translate(-1 -1473.123)">
      <g id="Group_929" data-name="Group 929" transform="translate(61 2562.478)">
        <path id="Path_890" data-name="Path 890" class="cls-3" d="M242.1,278.324C201.074,157.226,112.978,56.869,0,0V79.617c101.546,62.891,174.174,167.262,193,289.029h98.183c18.83-121.767,91.458-226.138,193-289.029V0C370.54,56.869,282.445,157.226,242.1,278.324Z"/>
        <path id="Path_891" data-name="Path 891" class="cls-3" d="M0,23v95.674C28.292,152.8,49.175,192.938,59.28,237.1h70.731C114.517,150.788,66.689,75.186,0,23Z" transform="translate(0 130.881)"/>
        <path id="Path_892" data-name="Path 892" class="cls-3" d="M52.6,237.765h70.783a281.489,281.489,0,0,1,59.323-118.422V23C115.968,75.186,68.1,150.788,52.6,237.765Z" transform="translate(301.73 130.881)"/>
      </g>
      <g id="Group_932" data-name="Group 932" transform="translate(1029.382 2562.478)">
        <path id="Path_890-2" data-name="Path 890" class="cls-3" d="M242.1,278.324C201.074,157.226,112.978,56.869,0,0V79.617c101.546,62.891,174.174,167.262,193,289.029h98.183c18.83-121.767,91.458-226.138,193-289.029V0C370.54,56.869,282.445,157.226,242.1,278.324Z"/>
        <path id="Path_891-2" data-name="Path 891" class="cls-3" d="M0,23v95.674C28.292,152.8,49.175,192.938,59.28,237.1h70.731C114.517,150.788,66.689,75.186,0,23Z" transform="translate(0 130.881)"/>
        <path id="Path_892-2" data-name="Path 892" class="cls-3" d="M52.6,237.765h70.783a281.489,281.489,0,0,1,59.323-118.422V23C115.968,75.186,68.1,150.788,52.6,237.765Z" transform="translate(301.73 130.881)"/>
      </g>
      <g id="Group_930" data-name="Group 930" transform="translate(545.191 2562.478)">
        <path id="Path_890-3" data-name="Path 890" class="cls-3" d="M242.1,278.324C201.074,157.226,112.978,56.869,0,0V79.617c101.546,62.891,174.174,167.262,193,289.029h98.183c18.83-121.767,91.458-226.138,193-289.029V0C370.54,56.869,282.445,157.226,242.1,278.324Z"/>
        <path id="Path_891-3" data-name="Path 891" class="cls-3" d="M0,23v95.674C28.292,152.8,49.175,192.938,59.28,237.1h70.731C114.517,150.788,66.689,75.186,0,23Z" transform="translate(0 130.881)"/>
        <path id="Path_892-3" data-name="Path 892" class="cls-3" d="M52.6,237.765h70.783a281.489,281.489,0,0,1,59.323-118.422V23C115.968,75.186,68.1,150.788,52.6,237.765Z" transform="translate(301.73 130.881)"/>
      </g>
      <g id="Group_931" data-name="Group 931" transform="translate(1513.572 2562.478)">
        <path id="Path_890-4" data-name="Path 890" class="cls-3" d="M242.1,278.324C201.074,157.226,112.978,56.869,0,0V79.617c101.546,62.891,174.174,167.262,193,289.029h98.183c18.83-121.767,91.458-226.138,193-289.029V0C370.54,56.869,282.445,157.226,242.1,278.324Z"/>
        <path id="Path_891-4" data-name="Path 891" class="cls-3" d="M0,23v95.674C28.292,152.8,49.175,192.938,59.28,237.1h70.731C114.517,150.788,66.689,75.186,0,23Z" transform="translate(0 130.881)"/>
        <path id="Path_892-4" data-name="Path 892" class="cls-3" d="M52.6,237.765h70.783a281.489,281.489,0,0,1,59.323-118.422V23C115.968,75.186,68.1,150.788,52.6,237.765Z" transform="translate(301.73 130.881)"/>
      </g>
    </g>
    <path id="Path_909" data-name="Path 909" class="cls-5" d="M.458,17.677l5.5.229,4.4.229,4.4.092,4.4.229,4.4.137,4.351.092,8.793.229,4.4.092h1.1l2.656.137h.641l3.755.092,9.342.092,3.847.137h1.557l5.679.092.137-9.113V1.557L69.885.87V0l.137.092V.229l.092.092h.092l.55.458.366.092h.183l.137.137.092.092.458.092.962.458h.366l1.1-.229.87-.55h.55l.55-.092L76.48.87l1.42.87.137.137.87.779.87.55h.55l.641.092-.183.641-.137.687.87,4.076v.87l.779,3.71v.229l.779,1.008v5.038h1.008l1.191,5.954v.55l-.321.229.092.183-.092.55.229.687-.137.092-.229.137-.183.183-.137.366.321.733v1.1l.137.55.092.137.55.321.229.092.229.366.229.183.183.366v.183l.229.229.321.137.366.092.321.229.321.229v.092l.092.092.137.137.092.092.137.137.641.092.321-.092.229.092.229.092.229.55h.412l.55.137.229.092h1.008l.183.137.458.183.229-.092.229-.092.321-.229.229-.229v-.229l.092-.092h1.42l.321.229.458.092.321.092.55-.092.687-.321.321.092.229.137.321.092.229.229.321.092.229.137v.183l.183.229v.229l.137.229-.229.779v.092l.229.229.092.092v.137h.458l.321.092h1.191l.687.092.321.137h.641l.458.092h.55l.321-.092.229.092h.55l.092-.092h.229l.137.092h.641l.229.137h.229l.733-.137h.229l.321.229.458.092h.55l.229.229H110l.55.137.458-.137v-.092h.092l.87.229h1.42l.137.092h.092l.137.092.183.687.137.092v.137l.092.183V39.8l.137.321.183.55.137.229v.092l.092.458-.092.321v.321l-.137.321v.458l-.183.229v.321l.092.229.092.092.366.137.092.092.092.229h.779l.321-.137.229.137h.137l.321-.137h.962l.137-.092.092.092h.137l.321.137h.092l.55-.137h1.007l.092-.092.137-.229.092-.229.092-.092.137-.092h.092l.137.183.092.229h.229l.092.137v-.137h.229l.092-.229.229-.092H122l.321.092.55-.092h.779l.321-.229h.412l.137-.092.412-.321.687-.137.412-.092h.137l.092-.229.092-.229.137-.321-.137-.229v-.092l-.092-.321-.092-.687v-.229l.412-.092h.458l.092-.092.137-.137.092-.092.092-.137.366-.183.183-.137h.229v.137l.137.092h.183l.366-.092h.321l.229-.137.092-.321.229.092h.092v-.183l.137-.458v-.092h.092l3.068-.779h1.557l.87.641.092.229h.137l1.1-.092,1.878-.137,3.389.137,1.1-.458.092.092v1.1l.687.137.779.412.412.137,5.725,2.748,2.29-.458.779.229.321,1.008v.412l-.092.229v.229l.092.092-.092.137-.229.092-.321-.092h-.229l-.321.229h-.779l-.412.092-.137.55-.229.55v.092l-.092.458.87.87.779.229.321.229,2.656-.321,1.328-.366.733-.092h.229l.55.779.137.092.092.137h.092v.183l.229.366.687.183v.687l-.687,1.42.321,1.008.366.87.183.321.458.641.092.229v.137l.229.183.137-.092.092.092.321.458.321.779.366.779.092.183.092.366.137.183v.229h.092v.229l.137.092.092.137v.321l.229.321.092.137.229-.137.321-.321.137-.092h.183l.137-.137.092-.092.137.092.183-.229h.137l.321-.092,1.1-.229.321-.229-.092-.412-.55-.458-.229-.321.092-.229h-.092v-.092l-.229-.55.229-.87-.458-.458.137-.321.321-.137.092-.962.916-.55,1.42.229h.092v.183l.458-.092h-.137V51.8l.137-.229.321.092V51.8h.092l.458-.229v-.229l.55-.321.55-.137.092.458h1.786l.229.092.183-.183.458-.137h.321l.229.55h.092V51.8l-.092.092.092.458.366.092.183.321,1.008.229-.321,1.191v.55l.183.366v.733l.55.229.366.687h.092v.092h.092l.137-.092v-.366h.412l.137.137.092.092v.229l-.229.092v.458h.366l.092.092h.092l.137-.092.092-.092h.229l.321-.137.137-.092h.321v.092h.092l.321-.092.366.55.55.412.183.55.55-.092h.55l.55-.092v.092l.229.092.321.229h.229l.137.229h.092l.092-.092.55-.137h.137l.092-.229h.137l.092.229.092.137h.229v-.366h.137l.87.366.092.183v.366l-.321.321V59.9l-.092.458h.092l.092-.137h.458v.916l-.092.092.183.321h.137l.092.137v.092l-.092.458-.137.412-.092.137-.092.183v.137l.321.092.321-.229v-.092l.321-.092v.183l-.229.366.366.092h.55V63.2l.321-.092.092.092-.092.137.412.641.916-.321h.87l.412-.229.55-.092.229.183-.55.55-.092,1.328.092.458-.092.412.321.366.779-.55,1.878-.779h.733l.458-.137h.229l-.137.229.366.55v.137l.092.092h.229l.55-.321.779-.137.321-.412.321-.229.229.092.412-.321h.366l.092.137h.321v-.137h.137l.321-.092h.87l.458-.321H201l.55-.366.412-.55.366-.183.412-.229.778-1.1.229.092.229-.229.641-.733.55-.458V60.36l.641-.229v-.092l.137-.229.229-.137.321-.092.229-.092.092-.229.229-.229.092.092h.137l.321-.092.092-.229.229-.092.458-.137.183-.092v.092h.137l.321-.092V58.39l.321-.366.321-.092v-.092l.916-.916,1.649-.641h.321l.321-.321.229-.229.412-.229.229.229.229.092h.229l.641-.321h.137l.183.229v.641l.229,1.237V58.94l.137.092.183-.229v-.321h.137l.092.092v.137h.321l.229.092.137.687.092.183.458-.092V59.49l.092-.137.092.137.137.092-.137.229v.412l-.183.137-.366.321-.092.092.092.137h.229l.137.092-.137.229.137.092h.092l.229.137v.092l.092.137v.092h.229V62.1l.229.55v.137l.412.321.366-.229,1.191-.092.55-.229,1.557-.229.55-.458h.183l.137-.092.321-.229h.458l.092-.092.229-.229.092-.092.137.183.183-.092h.366l.092.229-.458.55.137.321.092.092.321.137,1.328-.229.229.092v-.092h.412v-.092h.137l.092.092h.137l.092-.092.092-.137.137-.229h.229l.092-.092h.092l.458.092.092.137.137.092.229.137.962-.366h.229l.321.229h.229v.229h.092v.092l.366.137v-.137l.092-.092h.092l.458-.092.229.092h.092v-.092h.229v-.229l.229-.137.412-.092.229-.092h.229l.229.092.229.229h.092l.458-.321h.321l.412.092.687-.321.321-.137.229.137h.229l.55-.137h.183l.366-.183.412.092.458-.092h.229l.092-.137h.321l.137.229h.183v.092h1.1l.55.137.55.229.366.183h.183l.137.137.321.092.229.137.229.641.092.229.229-.137.412.55.137.458v.87l.092.137.137.183h.092l.092-.092.229.092.137.229.183.229h.229l.229.092.092-.183h.55l.137.092v.229l.092.092.321.321.229.229v.137h.321l.137.092.092.092.137.137h.87v-.137l.092-.092.687-.229.092-.229v-.183h.092l.229.092h.137l.183-.55.137-.229.412-.229V65.4l.366-.092v-.137h.412l.137-.092.183-.092.366-.137h.641v.137h.229v-.137l.229.137h.183l.137-.137v.229h-.137v.229l.137-.137.092-.092h.137V65.4h.321v.137l.092.092h.137l.321-.321h.092V65.4h.137l.092-.092h.321V65.4h.229v-.092h.229l.092.092.137.137v.092h.092v-.092h.321v.092l.137-.092-.137-.137v-.092l.458-.137h.229l.092-.092v-.092l.092-.137h.137v.321l.092.229h.458l.092.229h.229v.229h.092l.366-.137.183-.183,2.565-.779-.137.412v.137l-.092.092-.321.137-1.237.412-.321.321v.55l-.321.229-.229.229-.55.092-.321-.183-.458-.458h-.092l-.137-.092h-.321l-.229.092-.183.321v.779l.092.229-.092.092-.55.137h-.137l-.779.321-.412.229-.55.412-.55.458-.229.412-.458.366-.183.183-.366.229-.87.687-.962.55h-.137l-.412.183-.137.137-.321.092h-.641l-1.557.687-.092.092-.229.229.092.321h-.092l-.137.229h-.092l-.229.229-.962.641-.229.092-1.1.458-1.008.229-.229.092h-.092l-.55.229-.092.092V76.3l-.137.229h-.229l-.183.092-.366.092-.641.366h-.55l-.779.092h-.092v.092l-.687.366-.183.412-.916.137h-.55l-.641.183-.321.229h-.137l-.412.229-.687.321-.321.137-.321.092h-.092l-.137.092h-.092l-.137.137h-.092v.321h-.55l-.321.092h-.229l-.779.229-.229.137-.962.183-.55.229-.137.229-.55.321-1.191.458-.779.321-.092.092-.321.137-.229.092-.458.687-1.1.55-.87.412-.87.687h-.092v.092l-.229.092-1.328.687-.87.55-.321.229-.458.321L219,87.517l-.733.641-1.008.779-.092.092-.229.229-.229.092-.779.687-.321.229-.092.183-.366.366-.87.733v.366l-.229.183-.092.137h-.229l-.092.092-.321.229-.137.092-.779.687-.321.321-.092.092-.55.55-.229.137-.55.641-.092.137-.366.321-.321.092h-.092l-.137.137-.412.55-.137.321-.412.412-.458.687-.229.092-.183.137-.778.641-.137.321-.55.687h-.092V99.7h-.229l-.092.229-.321.412-.137.458-.229.55h-.092v.092l-.092.229-.55.55v.137l-.366.183-.733,1.008v.092h-.137L203.2,104l-.137.183v.137l-.183.321-.229.229h-.137l-.092.092-.458.458-.183.229-.137.092-.55.641-.55.55-.321.55-.092.229h-.137l-.229.458-.092.229h-.092l-.137.321-.412.321-.137.092-.092.229-.229.321-.458.229-.183.229-.137.092-.321.229-.458.687-.321.321-.321.412-.092.229-.137.137-.641.641-.687.229-.183.229H194.5l-.321.55h-.092l-.55.321-.366.092-.55.321-.412.229-.321.779-.229.321-.321.229H191.2v.092l-.229.137-.55.55-.092.229v.092h-.092v.092H190.1v.137l-.229.641-.55.321v.137l-.183.229-.458.183h-.229l-.321.137-.229.092-.962,1.008-.137.229-.87.962v.137h-.092l-.458.55v.183l-.458.366h-.092l-.458.321-.641.321h-.229l-.229.092-1.1.916-.321.183-.229.137-.55.641-.321.321-.229.137v.092l-1.1.687-1.1.962-.412.55-.229.137-.229.092-.412.321-.137.137-.229.092-.183.229-.366.321-.183.092-.137.137v.229l-.229.092-.321.229h-.092l-.229.229-.229.183v.137l.137.412.092.229.87,1.42,1.328,1.786.458.229-.229.092-.137-.092-.321-.137-.321-.321-.779-.779-.229-.229-.641-.641h-.962l-.366.229-.412.321-.137.229v.321l.137.092-.229.366v.092l-.092.092h-.229l-.458-.183-.092.092h-.687v.092l-.092.229-.092.229-.137.137H171l-.137.092.137.229.229.092h.55l.092.229.092.092v.366l-.183.092-.229.092-.137.137-.183.321-.229.229v.092l.092.229v.229l-.092.092-.229.137h-.092l-.366-.137h-.092l-.229.229h-.321l-.458-.458h-.092l-.229.366-.229.092v-.092l-.092-.366h-.321l-.137-.092v-.321h-.092l-.092.092v.137l.092.412v3.206l.092,2.977v2.748l.137,2.29v.779l.092,4.259v2.336l.137,1.328v4.03l.092.687v4.488l.092.229-.183.092h-.229l-.458.137v.092l-.321.137-.092.092-.137.092v.137h-.092v.55l-.137.229-.092.092v.779l-.092.092-.137.137v.321l-.229.229h-.183l-.366-.137-.321-.092-.321-.137-.641-.321h-.458l-.229.137-.229.183-.183.229-.137.229v.092l-.229.366v.092l-.092.092v.366l-.092.092-.229.092v.366l.092.092-.092.092-.229.229h-.321l-.229-.092h-.229l-.092-.137-.229-.092-.55-.092-.092-.137h-.137l-.092.137h-.137l-.321.183-.229.458h-.092v.092l-.092.366.092.183-.092.229-.366.137-.321.092h-.092l-.229.092-.321.229-.458.137-.229.092-.092.092-.092.137-.229-.137-.229.229h-.092l-.229-.092h-.137v.092l.137.321h-.137l-.55.137h-.092l-.458.412-.092.137-.092.092.092.229-.229.092h-.092l-.137.137-.092.092-.321.229h-.229v.092l-.229.137-.321.412-.458.779v.55l-.092.55-.229.229-.092.092-.321.229h-.137v.137l-.092.183v.229l.092.229v.229l.137.229v.412l-.137.137-.229.183-.092.137-.229.229v.092l-.092.321v.458l-.137.412v.137l-.412.412-.229.137v.229H150.9v.092h-.137v.092h-.092l-.137.137-.321.229-.092.183h-.229l-.229.137-.092.092h-.229v.229l-.092.092h-.366l-.092.137-.092.092v.321l-.137.55.137.229-.229.321v.779l-.137.458-.092.321v.229l-.092.412v1.328l.183.321v.229l-.092.229v.55l.092.229-.092.55.092.229v.092l.458.229.87.092h.137l.321.137.321.092h.458l.321-.092.412-.229h.137l.321-.137h.092l.137.137.229.092.321.321v.137h.092l.137.092h.092l.229.229.321.229.229.229v.183l-.137.55.137.366v.183l.092.137.229.229.229.183.321.55.092.229.137.229.092.229.137.092v.137l.092.092.092.092v.137l.137.229h.092l.687.183.183.229.229.55v1.42h.137v.137l-.137.321v.458l-.321.092-.229.092-.092.229-.137.229-.092.092-.092.137v.412l-.687.458-.229.321v.229l.137.55v.458l-.137.321-.183.321-.687.55-.092.321h-.137l-.092.137-.229.321-.229.092-.321.137v.092l-.092.092v.137l.092.321.137.092.183.366v.321l-.092.321-.092.092-.137.229.137.55v.458l.092.229.092.092v.55l-.183.092-.137.229v.137l-.092.412v.687l.321.183.092.229h.137v.137h-.137l-.092.321v.641l.321.687.137.733.092.229h.092v.321l-.092.229-.092.137-.366.092-.321.458-.321.321-.321.321-.137.092h-.092l-.092.137-.229.412-.137.137v.55l.229.229v.092l.137.092.183.229h.137l.229.229.092.092.092.137h.137l.229.321.092.229v.092l-.092.137v.321l-.137.229-.092.183v.687l.092.092-.092.321v.229l.092.229v.321l.321.137v.092l.229.321v.458l.137.229v.641l-.137.55-.092.458v.092l-.137.137-.183.092-.229.092v.687l.092.321.229.321.092.137-.092.092-.092.229v.779l.092.55v.321l-.092.092v.137l-.137.092v.321l-.229.458h-.092v.779l-.092.321-.137.229-.229.321-.183.229-.137.412-.092.229v.641l.092.137.137.092v.137l.412.321h.137l.321.092v.137l.412.092.366.321.092.137h.092l.458.183.229.137.779.641.412.458.137.229h.092l.229.321.55.55.092.092.229.229.092.092.229.229.87.458.366.412.092.229v.321l-.092.229v.458l.092.092h.092l.137.137.229-.137.183.137.458.183v.229h.092v.137h.229l.137-.229h.321v.092l.321.321.321.687.137.229-.137.092v.321h.137v.137h.321v-.137h.092l.137-.092.183-.137.229-.092h.137l.183.092v.137h.137l.229.092.183.137h.366l.092-.137h.092l.366.137h.092l.321.092.229.092.458-.092.321-.092h.229l.183.092.137.092h.412l.137.137h.55l.412-.137h.687l.321.137.458.092.183.229.366.229.092.092v.137h.092v.092l.137.092.092.458.137.229.092.229v.733l.092.137v.092l.137.229v.092h.092v.137l.137.092.092.137v.092l.321.321.137.229.55.458.55.183.092.137.092.092.137.229.092.092.137.137.412.321h.229l.779.229.229.092.641.229h.321l.779.092.55.137.092.092.229.229h.092l.137.092.321.137h.229l.321.092.092.137.229.092h.55l.229.092h.092l.229.229v.137h.137l.183.321.687.321h.092l.321.092h.137l.092.137.137.092.183.137.229.092.137.092h.412v.137h.229v.092h.092l.229.229.229.229.092.229.366.412.183.137.229.092.137.092.183.458.137.092v.229l.092.321V256l-.229.321-.092.229v.321l.092.137.137.092.412.229h.137v.092l.229.137.092.092v.687l.229.183.092.137v.412l-.229.55v.229l.137.229.412.55.137.092v.55l.092.137.137.092.183.137.229.092.137.092.183.137.137.092.092.137h.137l.092.092.229.092.092.137.458.641.321.229.458.229.87.321.229.229.183.229.229.092.137.092h.641l.092.137.366.092h.092l.321.458.137.092v.687l.092.092.458.229h.412l.229.229.092.092.137.092.092.137.137.092.092.229.092.321.137.137v.092h.092l.137.092.092.137.092.092.137-.092.092.092h.137l.092.137.092.092.137.092.092.137h.137l.183.092.229.137.137.092v.092h.092v.137l.092.092v.137l.137.092v.092h.229v.137h.092l.092.092.137.137h.87l.458.183h.87l.55.137h.229l.321.229.412.183H201l.321-.092.229.092.229.137.183.092h.229l.229.137h.092v.092h.137l.092.092v.137l.229.321v.229h.092l.458.412v.229l.092.229.137.092.412.229.229.137.137.092.412.458.229.321.092.092v.137l.137.321.229.412v.137l.183.092.137.137.092.092.137.229v.229l.092.092h.092v.092l.366.137.183.229h.137v.092l.092.229.137.229v.092l.092.458.321.321.137.092v.137h.092l.229.183.229.229.092.229.229.229v.412l.092.229.137.321v.229l.183.55.137.137.092.412v.137h.137l.183.321.366.412v.137l-.137.32-.229,1.1v.779l-.092.229v.092l-.092.229-.137.229-.092.183.092.779-.092.137-.137.733v.687l.137.412v.137l.229.229.092.092v.458l-.229.55.137.641.092.229.092.229.137.092.092.092h.137l.092.137.229.229.229.183.092.137.092.092v.137l.137.092v.779l-.137.229-.183.321v.092l-.137.137v.55l.321.321.137.412.092.137.229.092v.137h.092l.137.092.092.092v.687h-2.427l-.321.092-2.839.137h-1.1l-1.557.092h-1.878l-1.511.092h-2.885l-.183.137v-.137l-.137.137h-2.977l-1.1.092h-2.748l-.092.137h-2.29l-2.656.092h-1.328l-1.191.092h-3.435l-2.839.137h-1.1l-2.519.092h-1.878l-.962.137h-3.435l-.55.092h-3.847l-2.977.092h-2.2l-1.649.137H152.09l-1.42.092h-5.725l-.87.137h-6.732l-1.1.092H128l-.183.092H113.071l-3.068.137-1.328-.137H79.548L78.037,298H66.359l-.412-.092H57.8l-1.649-.137H49.14l-.779-.092H44.743l-2.656-.137h-1.74l-2.656-.092h-4.4l-1.649-.092H28.9l-1.008-.137H25.142l-.641-.092H22.3l-3.526-.137h-.183l.092-4.03v-1.466l.092-3.3v-.733l.137-3.755v-1.42l.092-.687v-2.29l.137-1.328v-3.71h.092v-3.847l.092-.55v-.137l.137-3.618.092-4.4v-2.2l.137-.641V255.91h.092v-3.618l.092-.366v-2.519l.137-.87v-3.526l.092-.779v-.092l.137-4.3v-.092l.092-2.839v-3.664l.092-.092v-2.2l.137-4.3v-.962l.092-2.656v-.87l.137-2.885v-2.29l.092-.641v-2.977l.092-1.328v-3.068l.137-1.42V205.9h-.137v-.229l-.092-.137-.092-.321-.137-.229h-.092v-.412l-.229-.321-.092-.366L20.1,203.7v-.137l-.229-.55-.092-.092-.321-.321-.229-.137-.458-.412-.321-.137-.321-.092-.229-.137-.55-.183-.321-.229-.321-.137-.229-.183-.55-.366-.55-.321H14.93v-.092H13.739l-.229-.137-.229.137-.092-.137H13.1l-.137-.092-.092-.092-.137-.137-.092-.092-.229-.229v-.229h-.092l-.229-.412-.458-.779-.183-.321h-.137l-.092-.458v-.321l-.229-.321V196.1l-.229-.55-.092-.229-.229-.55-.092-.412-.55-.687-.137-.321-.321-.458-.229-.183-.092-.137-1.1-1.511-.229-.366L7.6,190.6l-.137-.092v-.137l-.229-.229-.092-.092v-.229l.229-.229v-.321l.092-.412.229-.55.092-.229.229-.229.137-.092.092-.137h.092l.916-.641.092-.137.321-.183.229-.137.87-.55.137-.092.183-.458.229-.092,1.237-.779.87-.458.55-.321.092-.092.229-.137v-.092l.321-.321.458-.687.092-.183V181.9l.137-.092.183-.458v-.092l.137-.092.092-.137.229-.092.092-.137.137-.092.092-.092.137-.137.092-.321.229-.321h.092l.229-.229.092-.092h.137l.092-.366.137-.321v-.321l.092-.229v-1.191l.092-.229v-.779h.137v-.229l.092-.321v-.412l.137-.137V174.9h-.137v-.321l.137-.137v-.321l.092-.458v-.641l-.092-.092-.137-.687-.092-.55v-2.427h-.137v-.183l.229-.55v-.137l.229-.641.229-.137v-.092l.092-.092v-.366l.137-.092-.137-.229.137-.412v-1.1l-.137-.137-.092-.229-.137-.092v-.229h.137v-.229l-.137-.092-.092-.092v-.55l-.092-.458-.137-.092-.092-.137v-.229l.092-.412v-.321l-.092-.137v-.092h-.137v-.321h-.092v-.916h.092v-.092l.137-.229-.137-.092v-.321l-.183-.458h-.137V158.5l-.092-.229v-.092l.092-.092.137-.137.092-.092v-.229h-.092v-.458h-.137l-.092-.092.092-.092v-.137l.137-.229V156.3l-.137-.092v-.229l.137-.092v-.366h-.137v-.412l-.092-.137.229-.412v-.137l-.137-.183v-.687h-.229l-.183-.321-.229-.092.092-.229-.092-.137-.321-.092v-.229h-.137l-.229.137-.183-.137v-.412l-.137-.137-.229-.092v-.137l-.092-.092v-.229h-.229l-.092-.092v-.687l-.321-.733v-.137l-.137-.092-.092.092-.137-.092v-.229l-.092-.092H14.2v-.229l-.137-.137h-.092v-.412h-.137l-.092-.137V148.2H13.51l-.092-.137v-.229l.092-.092v-.229h-.092v-.092l.092-.137v-.55l-.092-.092v-.229l-.137-.092-.092-.137v-.092L12.869,146v-.366l-.137-.092.137-.092.092-.229v-.229h-.092v-1.42l-.137-.137-.092-.183v-.137l.092-.092-.092-.137v-.092h.092V142.7l-.092-.137v-.412l-.092-.137v-.092l.092-.137V141.6h.092l-.092-.458v-.092h-.229v-.366h-.092V140.5l-.229-.137v-.229L12,139.954h-.137l-.092-.137V139.5l-.137-.092.137-.137v-.229h-.137v-.092h-.092l.092-.092-.092-.137h-.092v-.412h-.137l-.092-.137v-.87l-.229-.229v-.55l.092-.092v-.137l.137-.092v-.321h.092v-.229l.229-.092v-.137l-.092-.092v-.55l-.137-.229.137-.229v-.229l.092-.092v-.321l.229-.137v-.321h-.137l-.092-.092.092-.229v-.229l-.092-.092v-.229l.092-.137v-.183h-.092v-.366h.092v-.092l-.092-.092v-.137h.092v-.092l-.092-.137-.092-.092.092-.092v-.137h-.092l-.137-.092.137-.137v-.183l-.137-.137v-.092H11.22v-.321l.092-.137v-.412l-.229-.137v-.229h.137V128.5l.229-.229h.183v-.092l-.092-.137v-.092h.229v-.321h.092L12,127.5l-.137-.092.137-.137v-.183h-.137v-.779H12v-.55l-.137-.137h.229l.229.137.092-.137v-.183h-.229v-.366l-.092-.183.092-.458.137-.092.092.092h.137v-.092l.092-.137-.092-.229.092-.183h.092v-.229H12.64l.092-.137v-.092l-.092-.092V123.1l.092-.092-.092-.137-.458.229-.092.137L12,123.33h-.137l-.092-.229h-.137v-.229l.137-.183-.137-.229v-.229h-.183v-.87l-.137-.137-.229.137-.321-.229-.092-.092.092-.366-.092-.641v-.55l-.137-.092v.092l-.183-.229v-.55l.092-.321h.092l.366-.092v-.137l-.137-.092v-.229H10.9v-.229l-.137-.092v-.137l.137-.183v-.366l-.137-.092v-.321l.137-.137h-.137v-.412H10.9v-.321l.092-.137H10.9v-.092l.092-.229-.092-.092v-.137l.092-.092v-.687l-.092-.092V113.9l.092-.137-.092-.092-.137-.229-.092-.092h.092v-.137l.137-.092-.137-.137-.092-.092V112.8l.092-.137v-.092l-.092-.137v-.092l-.137-.092.137-.137v-.229l.092-.183.137-.137h.092l-.092-.092v-.137l.092-.092v-.092H10.9v-.366l-.137-.092V110.6l.137-.229v-.137h-.137v-.092h-.092v-.458l-.137-.092h-.092v-.229h.092l.137-.229v-.092h-.137v-.092l.137-.137v-.092l-.137-.137v-.321l-.092-.092h.092l.137-.137-.137-.092v-.229l.137-.092.092-.137-.092-.092-.137-.092v-.137l.137-.092v-.229l-.137-.092-.092-.137h.092v-.092h-.092v-.458h.092v-.229h-.092v-.183l.092-.137V105.1l-.092-.229v-.229l.092-.229.366-.321V104l-.137-.229h-.229v-.321h.137l.092-.137v-.55h-.092v-.092l.092-.137v-.183l-.092-.137-.137-.229-.092-.183.092-.229v-.137h-.092v-.092l-.092-.092v-.137l-.137-.229h.137V100.8h.092v-.092H10.35l-.137-.137v-.092h.229v-.137l.092-.183.137-.137v-.412h-.137v-.366l-.092-.183-.092-.137v-.092l-.137-.137h-.092l-.137-.183V98.05h.137V97.5h.092l-.092-.092v-.137l.092-.092v-.137l-.092-.092.092-.321V96.4h-.092V96.31h.092v-.137l.137-.092-.137-.137v-.412l.137-.137v-.321h-.137v-.092l.137-.137v-.092l-.137-.092.137-.137.092-.092.092-.137V94.2l-.092-.092v-.229l.092-.137v-.092h-.092v-.229H10.35l-.137-.092h-.092V93.1l-.137-.229.137-.092.092-.137.229-.321V92l.092-.092h-.092v-.229h.092v-.137l-.092-.092v-.092l-.092-.137v-.092L10.442,91v-.092H10.35v-.092h.092l.092-.229-.092-.137v-.092l.092-.092v-.137l.137-.092v-.55l-.137-.137v-.092h.137v-.092l-.137-.137v-.412l-.092-.137h-.229l-.229-.092H9.892l.092-.137h.137l-.137-.092H9.892L9.8,88.067v-.229l-.137-.458-.229-.229v-.092h.229v-.55l-.092-.092v-.366l.092-.092v-.092l-.092-.137-.137-.092V85.41H9.342v-.092H9.251V84.54L9.113,84.4l-.092.137H8.793V84.4l.092-.092v-.229l-.092-.092v-.137H8.7v-.321H8.564V83.12H8.472v-.137l.092-.092v-.137l-.229-.183L8.243,82.2l-.092-.092v-.229l.092-.092.092-.137v-.092l-.092-.092-.092-.137v-.321l-.137-.092v-.458l-.229-.229L7.6,80.144H7.373v-.321l-.137-.137H7.144v-.229h.092l.137-.092v-.092l-.229-.137v-.092l-.229-.137H6.824v-.092l-.229-.229v-.229h.092v-.321l-.092-.229h.092v-.183H6.595v-.366L6.5,76.938H6.274l-.229-.229.092-.092v-.779l-.092-.092-.229-.137v-.092h.137l.092-.092v-.137H5.954L5.5,75.2,5.4,75.06H5.267v-.092H5.5v-.092L5.4,74.74l-.137-.092v-.229l.229-.092V74.19l-.229-.229V73.87l.229-.092v-.137l-.229-.229V73.32H5.4l.092.092h.092v-.321L5.5,73H5.4l.092-.137.092-.092L5.5,72.679H5.4v-.137H5.267V72.45l-.092-.137-.229-.092v-.458l-.092-.092H4.717l-.229-.092L4.4,71.351,4.3,71.213v-.092H4.4v-.458L4.3,70.572l-.137-.092v-.137l.137-.092v-.321l.092-.366.092-.321v-.229H4.4l-.229-.183v-.137H4.076v-.641l.092-.137v-.092H3.938v-.092H3.847V67.6l.092-.092v-.229h.137L3.938,66.5v-.412H3.847v-.137l-.092-.092-.137-.137H3.526v-.092H3.389L3.3,65.4l-.229-.412H2.839v-.137l.229-.229v-.412l-.092-.137-.137-.092v-.092h.137v-.229l-.137-.137-.092-.183V63.2H2.29V62.97l.137-.092v-.229L2.2,62.237v-.458l-.092-.092v-.229l-.137-.137H1.878L1.74,61.23V61l.137-.092v-.458H1.74V60.36l-.092-.321v-.366l.092-.092h.137v-.229l-.137-.092-.092-.137.229-.321v-.092l.092-.137v-.412l.137-.137v-.733H1.969l.137-.137v-.229l-.137-.092V56.6h.137v-.55l.092-.229h.229v-.641l-.137-.092v-.137h.137l.092-.092h.137l.183-.458v-.229l-.183-.321v-.092H2.427v-.229h.092v-.092h.229v-.137H2.656l-.137-.092v-.137l.137-.183H2.519v-.137H2.427v-.412h.092v-.366H2.427l-.137-.092V51.8l.137-.229.092-.229-.092-.092-.137-.137L2.2,50.88H2.29V50.7H2.2l-.092-.137-.137-.229v-.55h.137v-.092L2.2,49.6v-.366l.092-.092H2.2l-.092-.092V48.5H2.2l.092-.137.137-.321v-.55H2.2v-.229H2.29l.137-.092.092-.137v-.092l-.092-.092v-.229l.092-.137v-.321l-.092-.092v-.229h.092l.137-.229V45.2l-.229-.137H2.29v-.55l.137-.092H2.29v-.366l.137-.092.092-.092v-.366l-.092-.092-.137-.229L2.2,43.094v-.458l-.092-.412v-.458l.092-.092v-.366l-.092-.092-.229-.092v-.137H1.74v-.229h.137v-.092l.229-.092H2.2v-.137l-.092-.092H1.969v-.458l.137-.092H2.2l.092-.137v-.55h.137l.092-.092.137-.458-.137-.092V38.24l.137-.092v-.137l.092-.092v-.458h.229v-.321l.092-.092v.092h.137v-.412l.183-.137.137.137.092-.137h.137v-.321l-.137-.229.137-.092.092-.229v-.229l.092-.092h.137v-.55l.092-.137v-.733H4.3v-.137l-.137-.092-.092-.137-.229-.092-.229-.458-.092-.092.092-.092v-.229l-.092-.229-.137-.229V32.1L3.3,31.966l-.229-.183v-.458l-.092-.092v-.458l-.137-.229-.183-.229-.137-.092v-.092L2.656,30l.092-.092v-.137l-.229-.321V28.9H2.427v-.412H2.29L2.2,28.348v-.87H2.107l-.137-.092H1.878v-.137l-.137-.092v-.87l.137-.137h.092v-.321l-.092-.092v-.229h.092V25.28l-.092-.229-.137-.229V24.73H1.649l-.092-.092V24.5l.092-.229-.092-.092H1.42l-.092-.229-.137-.092v-.687l.137-.183-.137-.137-.183-.092L.87,22.623.779,22.44l.092-.229v-.229H.779l-.137-.092V21.2H.55l-.092-.092v-.458l-.137-.092v-.137l-.092-.092.092-.458v-.183l-.092-.137H.092L0,19.463v-.137l.092-.183v-.687l.137-.092.092-.137v-.321Z" transform="translate(194.356 1102.354)"/>
  </g>
</svg>
