<svg xmlns="http://www.w3.org/2000/svg" viewBox="0 0 53.732 42.353">
  <defs>
    <style>
      .cls-1 {
        fill: #70c8bc;
      }
    </style>
  </defs>
  <g id="Group_869" data-name="Group 869" transform="translate(0)">
    <g id="Group_868" data-name="Group 868">
      <g id="Group_867" data-name="Group 867">
        <path id="Path_885" data-name="Path 885" class="cls-1" d="M55.7,45.3l2.423,5.689c-5.795,3.055-14.434,11.905-15.909,21.176L43.482,60.05l9.587,6.532A10.957,10.957,0,0,1,58.337,76.59c0,6.216-5.584,11.062-11.378,11.062-4.425,0-7.375-2.318-9.587-3.9A22.2,22.2,0,0,1,34,71.849C33.895,59.839,42.534,49.936,55.7,45.3Zm29.394,0,2.423,5.689c-5.795,3.055-14.434,11.905-15.909,21.176L72.876,60.05l9.587,6.532A10.957,10.957,0,0,1,87.731,76.59c0,6.216-5.584,11.062-11.378,11.062-4.425,0-7.375-2.318-9.587-3.9a22.2,22.2,0,0,1-3.371-11.905C63.394,59.839,72.033,49.936,85.1,45.3Z" transform="translate(-33.999 -45.3)"/>
      </g>
    </g>
  </g>
</svg>
